<?xml version="1.0" standalone="no"?>
<!DOCTYPE svg PUBLIC "-//W3C//DTD SVG 20010904//EN"
 "http://www.w3.org/TR/2001/REC-SVG-20010904/DTD/svg10.dtd">
<svg version="1.0" xmlns="http://www.w3.org/2000/svg"
 width="1920.000000pt" height="1920.000000pt" viewBox="0 0 1920.000000 1920.000000"
 preserveAspectRatio="xMidYMid meet">

<g transform="translate(0.000000,1920.000000) scale(0.100000,-0.100000)"
fill="#000000" stroke="none">
<path d="M7692 13630 c-18 -11 -37 -32 -42 -46 -7 -17 -9 -468 -8 -1266 l3
-1240 33 -29 32 -29 620 0 620 0 32 29 c28 25 33 36 33 75 0 36 -6 51 -28 73
l-27 28 -555 3 -555 2 0 500 0 500 345 0 345 0 30 28 c57 50 42 146 -26 172
-14 6 -167 10 -360 10 l-334 0 2 498 3 497 551 3 551 2 26 26 c35 35 43 83 22
124 -31 61 -24 60 -682 60 -580 0 -599 -1 -631 -20z"/>
<path d="M9293 13630 c-17 -10 -37 -28 -42 -39 -8 -14 -11 -403 -11 -1261 l0
-1242 34 -34 34 -34 497 0 c547 0 568 2 673 62 120 68 210 199 232 338 14 89
14 1742 -1 1830 -22 141 -125 282 -251 346 -98 50 -144 54 -658 54 -453 0
-476 -1 -507 -20z m1057 -216 c25 -11 61 -36 79 -55 19 -18 44 -54 55 -79 21
-45 21 -53 21 -950 l0 -905 -27 -51 c-15 -29 -44 -66 -65 -83 -72 -60 -85 -61
-545 -61 l-418 0 0 1106 0 1105 428 -3 c408 -3 429 -4 472 -24z"/>
<path d="M10913 13634 c-38 -19 -67 -75 -58 -111 3 -14 19 -38 35 -54 27 -28
33 -29 119 -29 l91 0 0 -1105 0 -1105 -82 0 c-100 0 -139 -19 -158 -74 -10
-31 -9 -42 7 -73 29 -61 38 -63 345 -63 l276 0 31 26 c56 47 50 126 -11 164
-26 16 -51 20 -115 20 l-83 0 0 1105 0 1105 93 0 c96 1 109 5 140 50 34 49 10
122 -48 146 -52 21 -537 20 -582 -2z"/>
<path d="M4242 12440 c-222 -58 -390 -225 -459 -455 -16 -56 -18 -151 -21
-1505 -2 -1069 0 -1465 9 -1520 16 -103 47 -184 103 -268 86 -130 218 -223
372 -262 75 -19 113 -20 1234 -20 1119 0 1159 1 1234 20 182 46 337 170 414
330 22 47 47 108 54 135 10 40 13 346 13 1545 0 1430 -1 1498 -19 1555 -69
222 -242 389 -462 445 -75 19 -114 20 -1238 19 -1110 0 -1164 -1 -1234 -19z
m2437 -209 c82 -25 138 -60 193 -119 54 -58 82 -110 103 -189 23 -86 23 -2890
0 -2976 -21 -80 -49 -131 -103 -190 -58 -61 -103 -90 -181 -117 -59 -20 -80
-20 -1209 -20 -1124 0 -1150 0 -1207 20 -84 29 -136 62 -188 120 -57 63 -92
137 -107 221 -8 45 -10 485 -8 1494 3 1379 4 1432 22 1480 54 143 160 242 296
279 47 12 224 15 1192 15 1086 1 1139 0 1197 -18z"/>
<path d="M4345 11746 c-47 -21 -68 -50 -68 -98 0 -34 6 -47 32 -70 l31 -28
1139 0 1139 0 31 26 c39 33 49 82 25 123 -38 64 29 61 -1191 61 -897 -1 -1114
-3 -1138 -14z"/>
<path d="M4330 11247 c-14 -7 -33 -29 -43 -50 -24 -48 -9 -100 37 -128 30 -18
64 -19 1153 -19 705 0 1131 4 1147 10 68 26 83 122 26 173 l-30 27 -1133 0
c-882 0 -1138 -3 -1157 -13z"/>
<path d="M4350 10773 c-24 -9 -61 -46 -71 -72 -13 -32 6 -85 38 -111 25 -20
38 -20 1164 -20 l1137 0 31 26 c39 32 49 80 26 124 -33 63 26 60 -1197 59
-612 0 -1120 -3 -1128 -6z"/>
<path d="M4321 10274 c-61 -43 -60 -135 3 -174 33 -20 43 -20 1154 -20 704 0
1130 4 1146 10 68 26 83 122 26 173 l-30 27 -1138 0 c-1035 0 -1140 -1 -1161
-16z"/>
<path d="M4333 9794 c-45 -22 -68 -74 -53 -119 6 -19 23 -44 37 -55 25 -20 38
-20 1164 -20 l1137 0 30 25 c39 32 48 72 28 119 -29 70 39 66 -1198 66 -990 0
-1117 -2 -1145 -16z"/>
<path d="M4321 9304 c-30 -21 -51 -71 -44 -106 7 -37 48 -76 87 -83 17 -3 374
-5 793 -3 l761 3 26 24 c48 45 43 131 -10 166 -20 13 -116 15 -806 15 -708 0
-786 -2 -807 -16z"/>
<path d="M12482 12440 c-217 -57 -392 -226 -459 -445 -17 -57 -18 -132 -18
-1560 0 -1428 1 -1503 18 -1560 68 -222 242 -389 463 -445 75 -19 115 -20
1234 -20 1121 0 1159 1 1234 20 96 24 200 79 272 143 71 64 148 183 182 282
l27 80 0 1490 c0 1410 -1 1494 -18 1555 -65 233 -235 402 -463 460 -75 19
-114 20 -1238 19 -1109 0 -1164 -1 -1234 -19z m2468 -217 c114 -47 210 -144
252 -258 l23 -60 3 -1430 c2 -1009 0 -1449 -8 -1494 -15 -84 -50 -158 -107
-221 -52 -58 -104 -91 -188 -120 -57 -20 -83 -20 -1207 -20 -1129 0 -1150 0
-1209 20 -78 27 -123 56 -181 117 -54 59 -82 110 -103 190 -23 86 -23 2890 0
2976 21 79 49 131 103 189 54 58 111 93 190 119 54 17 116 18 1217 16 l1160
-2 55 -22z"/>
<path d="M12574 11744 c-70 -34 -82 -119 -23 -168 l31 -26 1139 0 1139 0 31
28 c26 23 32 36 32 70 0 27 -7 50 -19 64 -45 50 -7 48 -1191 48 -966 0 -1112
-2 -1139 -16z"/>
<path d="M12550 11233 c-57 -51 -42 -147 26 -173 16 -6 442 -10 1147 -10 1089
0 1123 1 1153 19 46 28 61 80 37 128 -10 21 -29 43 -43 50 -19 10 -275 13
-1157 13 l-1133 0 -30 -27z"/>
<path d="M12573 10765 c-68 -30 -80 -120 -22 -169 l31 -26 1137 0 c1126 0
1139 0 1164 20 32 26 51 79 38 111 -5 13 -21 35 -36 49 l-27 25 -1126 2 c-945
2 -1132 0 -1159 -12z"/>
<path d="M12550 10263 c-57 -51 -42 -147 26 -173 16 -6 442 -10 1145 -10 1244
0 1166 -4 1195 67 19 43 5 93 -33 123 -25 20 -38 20 -1164 20 l-1139 0 -30
-27z"/>
<path d="M12572 9795 c-39 -17 -66 -72 -57 -116 4 -16 20 -40 37 -54 l30 -25
1137 0 c1126 0 1139 0 1164 20 39 31 52 81 32 124 -33 70 41 66 -1197 66 -942
-1 -1118 -3 -1146 -15z"/>
<path d="M12551 9294 c-59 -50 -46 -140 24 -170 51 -21 1529 -21 1580 0 68 29
82 112 28 168 l-27 28 -787 0 -787 0 -31 -26z"/>
<path d="M7454 10280 c-76 -31 -85 -142 -14 -183 26 -16 142 -17 1465 -17
l1437 0 34 34 c45 45 47 92 5 138 l-29 33 -1439 2 c-791 1 -1448 -2 -1459 -7z"/>
<path d="M10764 10280 c-76 -31 -85 -142 -14 -183 25 -15 78 -17 505 -17 427
0 480 2 505 17 57 33 66 104 21 155 l-29 33 -484 2 c-266 1 -493 -2 -504 -7z"/>
<path d="M8014 9639 c-51 -25 -69 -107 -34 -151 36 -46 57 -49 359 -46 l283 3
29 33 c46 51 31 140 -27 162 -34 13 -583 12 -610 -1z"/>
<path d="M9011 9624 c-39 -32 -49 -80 -26 -124 32 -63 -19 -60 1125 -60 1126
0 1076 -2 1114 52 32 45 9 124 -41 147 -17 8 -343 11 -1083 11 l-1058 0 -31
-26z"/>
<path d="M9189 8943 c-14 -9 -31 -24 -37 -34 -10 -15 -72 -402 -72 -446 0 -7
-19 -17 -42 -24 -50 -13 -192 -71 -261 -106 -26 -13 -53 -21 -60 -17 -7 4 -77
57 -156 117 -79 60 -158 117 -175 128 -39 24 -83 24 -117 1 -55 -36 -549 -544
-551 -565 -4 -56 11 -82 137 -250 l134 -178 -39 -78 c-21 -43 -53 -120 -71
-172 -18 -52 -33 -95 -34 -97 -1 -1 -94 -16 -206 -32 -250 -36 -245 -35 -275
-65 l-24 -24 0 -399 c0 -386 1 -400 20 -425 27 -34 33 -36 274 -71 l208 -31
32 -90 c18 -49 51 -129 73 -177 l41 -86 -130 -173 c-72 -95 -134 -185 -139
-201 -5 -17 -4 -40 2 -56 12 -32 521 -547 563 -569 18 -9 40 -13 59 -9 18 4
107 64 206 139 l176 133 97 -46 c54 -26 131 -58 170 -71 40 -13 76 -26 80 -29
3 -3 20 -100 37 -216 16 -116 35 -223 42 -237 25 -55 43 -57 451 -57 276 0
379 4 397 13 50 25 59 53 91 276 16 118 32 216 34 219 3 2 40 17 84 32 43 15
118 46 166 69 49 22 93 41 99 41 5 0 78 -51 161 -114 83 -63 168 -124 189
-136 69 -41 80 -33 385 273 260 261 272 275 272 311 0 49 1 47 -146 243 l-125
167 45 97 c25 54 58 134 73 177 l27 79 200 27 c233 32 259 38 286 73 19 25 20
40 20 422 0 432 1 426 -57 449 -15 6 -111 23 -213 37 -102 14 -197 28 -211 31
-22 4 -29 17 -54 87 -15 45 -48 124 -72 174 l-43 92 135 181 c184 247 189 208
-58 459 -106 108 -221 225 -255 260 -143 148 -151 148 -355 -7 -56 -42 -125
-95 -154 -115 l-52 -38 -83 39 c-46 22 -123 54 -173 71 -49 18 -91 33 -92 35
-2 1 -16 97 -33 212 -16 115 -35 221 -40 235 -24 58 -32 59 -452 59 -334 0
-386 -3 -409 -17z m705 -395 c16 -112 35 -216 43 -231 16 -31 37 -42 178 -87
55 -18 152 -59 216 -91 78 -40 128 -59 152 -59 30 0 62 19 203 125 93 69 173
125 179 125 7 0 93 -84 193 -186 l181 -186 -130 -170 c-105 -140 -129 -177
-129 -204 0 -21 23 -78 59 -151 33 -65 73 -163 91 -218 41 -131 60 -167 90
-182 14 -6 115 -24 225 -40 l200 -28 3 -267 c1 -148 1 -268 0 -268 -18 0 -419
-61 -431 -65 -24 -10 -44 -45 -62 -111 -28 -98 -65 -191 -121 -301 -34 -65
-54 -117 -54 -138 0 -28 24 -65 130 -207 l129 -173 -188 -189 -188 -188 -169
126 c-102 76 -182 128 -201 132 -25 5 -45 0 -80 -20 -127 -70 -281 -134 -399
-165 -76 -20 -83 -36 -116 -263 -16 -112 -31 -209 -33 -215 -3 -10 -66 -13
-270 -13 -205 0 -265 3 -265 13 0 6 -13 102 -29 211 -21 144 -35 206 -48 224
-14 19 -50 35 -138 63 -66 22 -180 69 -253 106 -121 61 -135 65 -166 56 -18
-6 -106 -65 -196 -133 l-163 -122 -188 188 -188 189 129 173 c95 127 130 181
130 201 0 16 -25 79 -57 140 -31 61 -77 172 -102 247 -35 104 -52 142 -72 156
-19 14 -78 27 -230 49 -112 16 -205 29 -207 29 -1 0 -1 120 0 268 l3 267 195
27 c118 17 209 35 230 45 37 19 38 23 87 178 15 50 56 146 90 214 35 68 63
135 63 148 0 34 -9 48 -143 226 l-120 159 184 184 c101 101 189 184 195 184 6
0 79 -51 161 -114 83 -63 160 -119 171 -125 37 -19 89 -13 139 18 65 40 193
95 294 127 128 40 139 45 156 70 11 18 71 372 73 432 0 9 60 12 268 12 l268 0
28 -202z"/>
<path d="M9445 7330 c-242 -63 -425 -248 -481 -486 -22 -92 -14 -265 15 -347
37 -107 83 -180 161 -258 85 -86 150 -126 265 -164 68 -23 97 -27 195 -27 98
0 127 4 195 27 115 38 180 78 265 164 124 124 179 250 187 426 8 172 -31 300
-132 431 -156 203 -429 298 -670 234z m329 -228 c183 -86 275 -237 264 -436
-4 -72 -10 -96 -41 -159 -65 -131 -187 -223 -331 -248 -182 -31 -376 72 -463
248 -31 63 -37 87 -41 159 -12 219 108 389 323 461 25 8 75 12 130 10 77 -2
100 -7 159 -35z"/>
<path d="M5267 8189 c-35 -20 -47 -64 -47 -169 0 -105 8 -133 44 -162 43 -35
131 -14 154 37 15 33 16 219 1 248 -19 37 -52 57 -94 56 -22 0 -48 -4 -58 -10z"/>
<path d="M5664 8182 c-43 -34 -44 -43 -44 -492 0 -385 2 -435 17 -460 40 -68
141 -66 178 4 14 28 16 78 13 474 l-3 444 -28 24 c-34 29 -101 33 -133 6z"/>
<path d="M13403 8176 l-28 -24 -3 -444 c-3 -396 -1 -446 13 -474 37 -70 138
-72 178 -4 15 25 17 75 17 460 0 298 -3 438 -11 453 -31 61 -115 77 -166 33z"/>
<path d="M13814 8182 c-12 -9 -27 -27 -33 -39 -15 -29 -14 -215 1 -248 23 -51
111 -72 154 -37 36 29 44 57 44 162 0 137 -25 180 -105 180 -23 0 -49 -8 -61
-18z"/>
<path d="M5274 7449 c-47 -23 -54 -54 -54 -249 0 -134 4 -198 16 -244 45 -176
183 -315 359 -361 88 -23 1431 -23 1475 0 59 31 69 104 21 157 l-29 33 -714 5
c-711 5 -713 5 -754 27 -63 34 -97 66 -129 125 -30 53 -30 54 -35 256 l-5 204
-33 29 c-34 31 -78 37 -118 18z"/>
<path d="M13808 7431 l-33 -29 -5 -204 c-5 -202 -5 -203 -35 -256 -32 -59 -66
-91 -129 -125 -41 -22 -43 -22 -751 -27 -390 -3 -717 -9 -726 -13 -40 -20 -62
-104 -39 -148 27 -50 19 -49 762 -49 591 0 703 2 753 15 175 46 314 185 359
361 23 91 23 414 -1 454 -33 57 -104 66 -155 21z"/>
</g>
</svg>
