<?xml version="1.0" encoding="UTF-8"?> <svg xmlns="http://www.w3.org/2000/svg" xmlns:xlink="http://www.w3.org/1999/xlink" xmlns:v="https://vecta.io/nano" viewBox="0 0 500 500"><path d="M257.2 178.7c0-4-3.3-7.3-7.3-7.3s-7.3 3.3-7.3 7.3v111.9h-14.5l21.8 37.7 21.8-37.7h-14.5V178.7zm-132.1 44.4c0-4-3.3-7.3-7.3-7.3s-7.3 3.3-7.3 7.3v67.4H96l21.8 37.7 21.8-37.7h-14.5v-67.4zm264.4 0c0-4-3.3-7.3-7.3-7.3s-7.3 3.3-7.3 7.3v67.4h-14.5l21.8 37.7 21.8-37.7h-14.5v-67.4z" fill="#002d3f"></path><g fill="#f4ba00"><use xlink:href="#B"></use><use xlink:href="#B" x="-264.5"></use></g><use xlink:href="#C" fill="#002d3f"></use><use xlink:href="#C" y="-270.9" fill="#00bcbc"></use><path d="M381.5 232H118.6c-4.5 0-8.1-3.6-8.1-8s3.6-8 8.1-8h262.9c4.5 0 8.1 3.6 8.1 8s-3.7 8-8.1 8z" fill="#002d3f"></path><defs><path id="B" d="M353.6 367.9c-3.2 5.1-5.1 11.2-5.1 17.7 0 5.5 1.3 10.7 3.7 15.2a31.67 31.67 0 0 0 5.9 8.2c3.7 3.8 8.2 6.7 13.3 8.4 3.1 1.1 6.5 1.7 10 1.8h.9c6.9 0 13.3-2.1 18.7-5.6 2.8-1.9 5.3-4.2 7.5-6.8 4.2-5.1 6.9-11.5 7.4-18.5.1-.9.1-1.8.1-2.7a34.74 34.74 0 0 0-.8-7.3c-1.9-8.7-7.2-16.1-14.4-20.9-2.8-1.8-5.9-3.3-9.2-4.2-2.9-.8-6-1.3-9.2-1.3-8.5 0-16.2 3.1-22.1 8.3-2.7 2.2-4.9 4.8-6.7 7.7z"></path><path id="C" d="M249.8 351.6c-1.9 0-3.8.2-5.6.5-3.3.6-6.5 1.6-9.6 3.2-2.7 1.4-5.3 3.1-7.7 5.3-6.2 5.8-9.7 13.3-10.6 21.1-.4 3.4-.2 6.8.4 10.1 1.2 5.9 3.9 11.7 8.3 16.4 3.7 4 8.2 6.9 13.1 8.7 3.2 1.2 6.5 1.9 9.9 2h1.8c4.7 0 9.3-1 13.7-2.9 3-1.3 5.9-3.2 8.5-5.5.2-.2.5-.4.7-.6a33.52 33.52 0 0 0 9.9-16.8c.8-3.3 1.1-6.7.9-10.1-.4-6.6-2.8-13.1-7.1-18.6-.6-.7-1.1-1.4-1.8-2.1-1.7-1.8-3.6-3.4-5.6-4.8-5.7-3.9-12.4-5.9-19.2-5.9h0z"></path></defs></svg> 