<?xml version="1.0" encoding="UTF-8"?>
<svg id="uuid-fc341054-5e09-4bdc-a2b0-46fcdb3d148a" data-name="Layer 1" xmlns="http://www.w3.org/2000/svg" viewBox="0 0 707.63894 498.57447">
  <defs>
    <style>
      .uuid-2ec7887e-09dd-44b7-af0b-ad1f5bdee776 {
        stroke: #008ecf;
      }

      .uuid-2ec7887e-09dd-44b7-af0b-ad1f5bdee776, .uuid-26d2881a-8f3b-4460-a57e-74b09e415e03, .uuid-77a09b84-8ce5-4375-9ab8-43146661a074 {
        fill: none;
        stroke-linecap: round;
        stroke-linejoin: round;
        stroke-width: 2px;
      }

      .uuid-74688706-50d9-4b3e-8a83-aba56ef00994 {
        fill: #e3f1f8;
      }

      .uuid-26d2881a-8f3b-4460-a57e-74b09e415e03 {
        stroke: #09263c;
      }

      .uuid-77a09b84-8ce5-4375-9ab8-43146661a074 {
        stroke: #e3f1f8;
      }
    </style>
  </defs>
  <circle class="uuid-74688706-50d9-4b3e-8a83-aba56ef00994" cx="287.69074" cy="265.82655" r="218.5075"/>
  <g id="uuid-15e94b83-f38f-4773-9487-67acfb3c919d" data-name="Layer 2">
    <g id="uuid-81eba6ad-662e-4d9a-ba3b-bbf8bf7e8170" data-name="icons">
      <g>
        <g>
          <path id="uuid-6df67801-01cb-4578-916d-5e5b7ac4b1d6" data-name="Shape 560" class="uuid-77a09b84-8ce5-4375-9ab8-43146661a074" d="m537.86508,56.19894v14.52496l-6.76774-5.64507-6.77409,5.64507v-14.52496"/>
          <path id="uuid-cff0688b-ef67-4d82-a4ca-c8b183aec939" data-name="Oval 58" class="uuid-77a09b84-8ce5-4375-9ab8-43146661a074" d="m531.09734,52.6787c1.87061,0,3.38704-1.51643,3.38704-3.38704s-1.51643-3.38704-3.38704-3.38704-3.38704,1.51643-3.38704,3.38704h0c-.00351,1.86711,1.50724,3.38354,3.37435,3.38704.00423,0,.00847,0,.0127,0Z"/>
          <path id="uuid-59f93e55-9132-417a-92a5-ef054959d6b3" data-name="Shape 561" class="uuid-77a09b84-8ce5-4375-9ab8-43146661a074" d="m539.49518,49.29166c1.56524-1.92834,1.27089-4.76045-.65745-6.32569-.99201-.80521-2.2797-1.15045-3.54147-.94948-.89896-2.319-3.50763-3.47017-5.82663-2.57121-1.18037.45757-2.11363,1.39083-2.57121,2.57121-2.45336-.38664-4.75564,1.28877-5.14227,3.74214-.19842,1.25905.14676,2.54316.9497,3.53303-1.56524,1.92834-1.27089,4.76045.65745,6.32569.99201.80521,2.27969,1.15045,3.54146.94948.89378,2.31725,3.49682,3.4712,5.81407,2.57743,1.18442-.45684,2.12059-1.393,2.57743-2.57743,2.45273.39066,4.75774-1.28098,5.1484-3.7337.20097-1.26177-.14426-2.54946-.94949-3.54147Z"/>
        </g>
        <path class="uuid-77a09b84-8ce5-4375-9ab8-43146661a074" d="m518.84864,67.35742c-.63188.19102-1.27051.35977-1.91473.50589-12.87906-2.81202-22.07174-14.19934-22.10458-27.38177v-14.6645c0-1.05091.85193-1.90283,1.90283-1.90283h40.1371c1.0509,0,1.90283.85193,1.90283,1.90283v11.74148"/>
      </g>
    </g>
  </g>
  <g>
    <g>
      <path id="uuid-30ee5dd8-d6cc-4a4c-9769-bd4ca0304910" data-name="Shape 811" class="uuid-26d2881a-8f3b-4460-a57e-74b09e415e03" d="m227.98137,340.95289c0,10.22434-19.6807,18.5056-43.95079,18.5056s-43.95079-8.28126-43.95079-18.5056"/>
      <path id="uuid-9be48418-4486-4282-9a8c-8f6034df59fb" data-name="Shape 813" class="uuid-26d2881a-8f3b-4460-a57e-74b09e415e03" d="m140.07978,342.16726s0,19.60444,0,19.60443c0,10.22434,19.6807,18.5056,43.95079,18.5056s43.95079-8.28126,43.95079-18.50558v-19.60444"/>
      <path id="uuid-cd82bfb5-b473-4e45-8233-9a940e0cdb85" data-name="Oval 43" class="uuid-26d2881a-8f3b-4460-a57e-74b09e415e03" d="m140.08441,340.95289c0,10.22018,19.67425,18.5056,43.94366,18.5056s43.94366-8.28542,43.94366-18.5056c0-.18385-.00637-.36708-.01901-.54964"/>
    </g>
    <g>
      <path id="uuid-74bb10b8-4cca-4936-9f90-5e6864c73507" data-name="Shape 811" class="uuid-26d2881a-8f3b-4460-a57e-74b09e415e03" d="m227.98137,361.77191c0,10.22434-19.6807,18.5056-43.95079,18.5056s-43.95079-8.28126-43.95079-18.5056"/>
      <path id="uuid-0f3817c2-833b-4575-acef-a7e771434fcd" data-name="Shape 813" class="uuid-26d2881a-8f3b-4460-a57e-74b09e415e03" d="m140.07978,362.98628v19.60443c0,10.22434,19.6807,18.5056,43.95079,18.5056s43.95079-8.28126,43.95079-18.50558v-19.60444"/>
      <path id="uuid-b8c9b014-9086-42f7-a60f-0820462b829b" data-name="Oval 43" class="uuid-26d2881a-8f3b-4460-a57e-74b09e415e03" d="m140.08441,361.77191c0,10.22018,19.67425,18.5056,43.94366,18.5056s43.94366-8.28542,43.94366-18.5056c0-.18385-.00637-.36708-.01901-.54964"/>
    </g>
    <g>
      <path id="uuid-d8e86d13-88fc-4245-9579-6d0461b1b0e8" data-name="Shape 811" class="uuid-26d2881a-8f3b-4460-a57e-74b09e415e03" d="m227.98137,320.13409c0,10.22434-19.6807,18.5056-43.95079,18.5056s-43.95079-8.28126-43.95079-18.5056"/>
      <path id="uuid-9747ce7e-7d27-44ea-a059-5e0dd6e2f49b" data-name="Shape 813" class="uuid-26d2881a-8f3b-4460-a57e-74b09e415e03" d="m140.07978,321.34846v19.60443c0,10.22434,19.6807,18.5056,43.95079,18.5056s43.95079-8.28126,43.95079-18.50558v-19.60444"/>
      <path id="uuid-f48f5207-691f-4447-8f45-27468302a9c7" data-name="Oval 43" class="uuid-26d2881a-8f3b-4460-a57e-74b09e415e03" d="m184.0352,338.63969c24.2733,0,43.95079-8.28542,43.95079-18.5056s-19.67749-18.5056-43.95079-18.5056-43.95079,8.28542-43.95079,18.5056,19.67744,18.5056,43.95079,18.5056Z"/>
    </g>
  </g>
  <g>
    <g>
      <path id="uuid-b6aaff3f-86bf-466c-8fa0-f23b37671217" data-name="Shape 811" class="uuid-26d2881a-8f3b-4460-a57e-74b09e415e03" d="m578.68715,340.95289c0,10.22434-19.6807,18.5056-43.95079,18.5056s-43.95079-8.28126-43.95079-18.5056"/>
      <path id="uuid-cb9113af-b87e-4c22-ad61-493731970dcd" data-name="Shape 813" class="uuid-26d2881a-8f3b-4460-a57e-74b09e415e03" d="m490.78556,342.16726s0,19.60444,0,19.60443c0,10.22434,19.6807,18.5056,43.95079,18.5056s43.95079-8.28126,43.95079-18.50558v-19.60444"/>
      <path id="uuid-9ebb7399-1c9f-49c2-a1c8-ee695e1e7d84" data-name="Oval 43" class="uuid-26d2881a-8f3b-4460-a57e-74b09e415e03" d="m490.79019,340.95289c0,10.22018,19.67425,18.5056,43.94366,18.5056s43.94366-8.28542,43.94366-18.5056c0-.18385-.00637-.36708-.01901-.54964"/>
    </g>
    <g>
      <path id="uuid-9de42ce9-0f83-46a2-916e-2f6938981001" data-name="Shape 811" class="uuid-26d2881a-8f3b-4460-a57e-74b09e415e03" d="m578.68715,361.77191c0,10.22434-19.6807,18.5056-43.95079,18.5056s-43.95079-8.28126-43.95079-18.5056"/>
      <path id="uuid-42e87ea0-e23a-4fb4-9b50-4a0391fb399e" data-name="Shape 813" class="uuid-26d2881a-8f3b-4460-a57e-74b09e415e03" d="m490.78556,362.98628v19.60443c0,10.22434,19.6807,18.5056,43.95079,18.5056s43.95079-8.28126,43.95079-18.50558v-19.60444"/>
      <path id="uuid-df0a9261-c41f-4540-aa0e-6282a82b7bb2" data-name="Oval 43" class="uuid-26d2881a-8f3b-4460-a57e-74b09e415e03" d="m490.79019,361.77191c0,10.22018,19.67425,18.5056,43.94366,18.5056s43.94366-8.28542,43.94366-18.5056c0-.18385-.00637-.36708-.01901-.54964"/>
    </g>
    <g>
      <path id="uuid-4ca8fb3c-4b23-4669-a003-e20da83cab4c" data-name="Shape 811" class="uuid-26d2881a-8f3b-4460-a57e-74b09e415e03" d="m578.68715,320.13409c0,10.22434-19.6807,18.5056-43.95079,18.5056s-43.95079-8.28126-43.95079-18.5056"/>
      <path id="uuid-c9aefe28-b1aa-445a-8d94-00941c66af29" data-name="Shape 813" class="uuid-26d2881a-8f3b-4460-a57e-74b09e415e03" d="m490.78556,321.34846v19.60443c0,10.22434,19.6807,18.5056,43.95079,18.5056s43.95079-8.28126,43.95079-18.50558v-19.60444"/>
      <path id="uuid-5f25b9bc-81f2-4d95-8cd7-f37f6df1ff00" data-name="Oval 43" class="uuid-26d2881a-8f3b-4460-a57e-74b09e415e03" d="m534.74098,338.63969c24.2733,0,43.95079-8.28542,43.95079-18.5056s-19.67749-18.5056-43.95079-18.5056-43.95079,8.28542-43.95079,18.5056,19.67744,18.5056,43.95079,18.5056Z"/>
    </g>
  </g>
  <g>
    <g>
      <path id="uuid-edb57634-1078-40e4-b498-b3b2f5a9905a" data-name="Shape 811" class="uuid-26d2881a-8f3b-4460-a57e-74b09e415e03" d="m407.95422,371.63178c0,10.22434-19.6807,18.5056-43.95079,18.5056s-43.95079-8.28126-43.95079-18.5056"/>
      <path id="uuid-e2de6b7a-18c2-43b2-87e4-9b94fa9c1e5f" data-name="Shape 813" class="uuid-26d2881a-8f3b-4460-a57e-74b09e415e03" d="m320.05263,372.84615s0,19.60444,0,19.60443c0,10.22434,19.6807,18.5056,43.95079,18.5056s43.95079-8.28126,43.95079-18.50558v-19.60444"/>
      <path id="uuid-6fc45ebf-8e17-4d8d-a121-fa04fda56424" data-name="Oval 43" class="uuid-26d2881a-8f3b-4460-a57e-74b09e415e03" d="m320.05725,371.63178c0,10.22018,19.67425,18.5056,43.94366,18.5056s43.94366-8.28542,43.94366-18.5056c0-.18385-.00637-.36708-.01901-.54964"/>
    </g>
    <g>
      <path id="uuid-4ac0ae1e-7522-42cd-9556-a9d577689af1" data-name="Shape 811" class="uuid-26d2881a-8f3b-4460-a57e-74b09e415e03" d="m407.95422,392.45081c0,10.22434-19.6807,18.5056-43.95079,18.5056s-43.95079-8.28126-43.95079-18.5056"/>
      <path id="uuid-9a6915d3-3dc1-4323-b4d0-b2724ae6707d" data-name="Shape 813" class="uuid-26d2881a-8f3b-4460-a57e-74b09e415e03" d="m320.05263,393.66518v19.60443c0,10.22434,19.6807,18.5056,43.95079,18.5056s43.95079-8.28126,43.95079-18.50558v-19.60444"/>
      <path id="uuid-5eb6b4d8-e39f-46c0-8df4-13214e6da060" data-name="Oval 43" class="uuid-26d2881a-8f3b-4460-a57e-74b09e415e03" d="m320.05725,392.45081c0,10.22018,19.67425,18.5056,43.94366,18.5056s43.94366-8.28542,43.94366-18.5056c0-.18385-.00637-.36708-.01901-.54964"/>
    </g>
    <g>
      <path id="uuid-ce34b8b1-fa74-40b8-b898-18b99bd4be1b" data-name="Shape 811" class="uuid-26d2881a-8f3b-4460-a57e-74b09e415e03" d="m407.95422,350.81299c0,10.22434-19.6807,18.5056-43.95079,18.5056s-43.95079-8.28126-43.95079-18.5056"/>
      <path id="uuid-26ab0483-6155-43e2-bfb6-7c3124255d20" data-name="Shape 813" class="uuid-26d2881a-8f3b-4460-a57e-74b09e415e03" d="m320.05263,352.02736v19.60443c0,10.22434,19.6807,18.5056,43.95079,18.5056s43.95079-8.28126,43.95079-18.50558v-19.60444"/>
      <path id="uuid-dc72bec1-27e6-4f8b-b9c6-5e59c5eeb42e" data-name="Oval 43" class="uuid-26d2881a-8f3b-4460-a57e-74b09e415e03" d="m364.00805,369.31858c24.2733,0,43.95079-8.28542,43.95079-18.5056s-19.67749-18.5056-43.95079-18.5056-43.95079,8.28542-43.95079,18.5056,19.67744,18.5056,43.95079,18.5056Z"/>
    </g>
  </g>
  <g id="uuid-58605239-3b26-4f73-82f2-94c882e48837" data-name="Social-Medias-Rewards-Rating / Love-It / love-it">
    <g id="uuid-4ca483db-c0c5-4d1e-bc39-5e816fe44ff9" data-name="Group 66">
      <g id="uuid-97857996-f6a9-446c-822b-2664387f4fcb" data-name="love-it">
        <path id="uuid-119f528c-0865-46bf-8797-83f19d0ebb10" data-name="Shape 266" class="uuid-77a09b84-8ce5-4375-9ab8-43146661a074" d="m59.23744,120.99762l-27.0087-27.81345c-4.86105-4.76786-6.07313-12.13518-2.99576-18.20883h0c2.34311-4.54821,6.70915-7.71126,11.76116-8.52014,5.05201-.80888,10.18755.83258,13.83372,4.42199l4.40958,4.02099,4.40958-4.02099c3.64642-3.5883,8.78165-5.22894,13.83311-4.42033,5.05145.80888,9.41777,3.97111,11.76177,8.51849h0c3.07538,6.07393,1.86329,13.44014-2.99576,18.20883l-27.0087,27.81345Z"/>
      </g>
    </g>
  </g>
  <g id="uuid-6e222b1a-e3a2-493b-bd42-af7c6d2a47fd" data-name="Internet-Networks-Servers / Cloud / cloud">
    <g id="uuid-72a28de8-d9df-46cd-9063-8e577cacf5a3" data-name="Group 241">
      <g id="uuid-eaae65d3-5d81-4b36-8fb9-d7e733520b4f" data-name="cloud">
        <path id="uuid-b668dac5-d41f-4c99-973b-f5c2f51a71d4" data-name="Shape 1805" class="uuid-2ec7887e-09dd-44b7-af0b-ad1f5bdee776" d="m686.82767,318.85612c.03807-40.20692-16.30599-78.69264-45.25841-106.59041-28.95198-27.89777-68.02174-42.7991-108.1986-41.26749-40.33771-85.65449-133.63795-133.0336-226.59837-115.07202-92.95702,17.96158-161.89121,96.69273-167.41287,191.20802-32.75668-6.86113-66.86087,1.40718-92.83895,22.50604-25.97808,21.09589-41.06308,52.77973-41.06562,86.24699,0,112.87089,118.49962,111.09339,118.49962,111.09339h429.56112s133.31207-17.36019,133.31207-148.12452Z"/>
      </g>
    </g>
  </g>
  <g id="uuid-2559269f-3de0-49c2-a875-ef80c68fa865" data-name="Programming-Apps-Websites / Apps / monitor-chart">
    <g id="uuid-5c2f0be3-cef9-4e63-a218-3926ec8e0ac1" data-name="Group 162">
      <g id="uuid-a86c2f83-cd07-454e-86e1-731500ce8e3e" data-name="monitor-chart">
        <path id="uuid-2d39aaee-be81-4737-8cfe-da8a2cb43ec0" data-name="Shape 1096" class="uuid-26d2881a-8f3b-4460-a57e-74b09e415e03" d="m298.21791,247.88604h83.03639"/>
        <path id="uuid-e3201133-2af1-4aae-9a69-52b5a77e6962" data-name="Shape 1097" class="uuid-26d2881a-8f3b-4460-a57e-74b09e415e03" d="m336.77053,236.02369v11.86234"/>
        <path id="uuid-9d7b926d-dea8-4fe2-aceb-54d1964ce452" data-name="Shape 1098" class="uuid-26d2881a-8f3b-4460-a57e-74b09e415e03" d="m271.52764,212.29901h136.41693"/>
        <path id="uuid-9977c401-6d80-4fd0-b335-39ed4c7b2688" data-name="Oval 96" class="uuid-2ec7887e-09dd-44b7-af0b-ad1f5bdee776" d="m318.97701,200.43667c16.37827,0,29.65586-13.27752,29.65586-29.65586s-13.27759-29.65586-29.65586-29.65586-29.65586,13.27752-29.65586,29.65586,13.27745,29.65586,29.65586,29.65586Z"/>
        <path id="uuid-63ad61f8-1218-48d0-aeed-df84d6ea33b1" data-name="Shape 1099" class="uuid-2ec7887e-09dd-44b7-af0b-ad1f5bdee776" d="m335.74443,146.34439l-16.76742,24.46015,19.0094,22.75197"/>
        <path id="uuid-0080c16e-a78c-4568-ab4c-b891c2d05a6c" data-name="Shape 1100" class="uuid-2ec7887e-09dd-44b7-af0b-ad1f5bdee776" d="m318.97701,170.78081h-29.65586"/>
        <path id="uuid-52ba1ee2-b5ef-4e49-996f-b412c12c7850" data-name="Shape 1101" class="uuid-2ec7887e-09dd-44b7-af0b-ad1f5bdee776" d="m366.42638,147.05613h23.72468"/>
        <path id="uuid-3530581e-0b3e-4070-a039-45e0b11e9859" data-name="Shape 1102" class="uuid-2ec7887e-09dd-44b7-af0b-ad1f5bdee776" d="m366.42638,164.84964h23.72468"/>
        <path id="uuid-0dfea119-4adb-4f63-bf8c-4beee1f07f0f" data-name="Shape 1103" class="uuid-2ec7887e-09dd-44b7-af0b-ad1f5bdee776" d="m366.42638,182.64315h23.72468"/>
        <path id="uuid-a5a49846-f606-412e-930e-07ca6e718121" data-name="Rectangle-path 96" class="uuid-26d2881a-8f3b-4460-a57e-74b09e415e03" d="m271.52764,138.15937c0-4.91338,3.98331-8.89676,8.89676-8.89676h118.62342c4.91331,0,8.89676,3.98337,8.89676,8.89676v88.96757c0,4.91338-3.98345,8.89676-8.89676,8.89676h-118.62342c-4.91345,0-8.89676-3.98337-8.89676-8.89676v-88.96757Z"/>
      </g>
    </g>
  </g>
  <line class="uuid-2ec7887e-09dd-44b7-af0b-ad1f5bdee776" x1="231.87854" y1="293.84353" x2="267.52799" y2="259.56596"/>
  <line class="uuid-2ec7887e-09dd-44b7-af0b-ad1f5bdee776" x1="364.00091" y1="301.62849" x2="353.86508" y2="268.97182"/>
  <line class="uuid-2ec7887e-09dd-44b7-af0b-ad1f5bdee776" x1="506.29644" y1="289.69824" x2="434.99753" y2="241.95486"/>
  <g>
    <path id="uuid-d5f433c4-e144-4dd8-9dd5-122fee8493b3" data-name="Oval 18" class="uuid-77a09b84-8ce5-4375-9ab8-43146661a074" d="m657.28683,123.86126c4.91913,0,8.4328-4.2164,8.4328-8.4321,0-4.2164-4.2164-8.4328-8.4328-8.4328-4.91913,0-8.4328,4.2164-8.4328,8.4328,0,4.2157,3.51367,8.4321,8.4328,8.4321Z"/>
    <path id="uuid-ef7caaf4-2ec8-44fb-b311-dedd9ad6627c" data-name="Shape 59" class="uuid-77a09b84-8ce5-4375-9ab8-43146661a074" d="m665.0169,80.99451l2.81093,8.4328c.70273,2.81093,4.2164,4.91913,7.02734,4.2164l8.4328-2.1082c3.51367-.70273,7.02734.70273,8.4328,3.51367,1.40547,2.81093,1.40547,7.02734-1.40547,9.13554l-6.3246,6.3246c-2.1082,2.1082-2.1082,5.62187,0,7.73007l6.3246,6.3246c2.1082,2.81093,2.81093,6.3246,1.40547,9.13554-1.40547,2.81164-4.91913,4.2164-8.4328,3.51367l-8.4328-2.1082c-2.81093-.70273-6.3246.70273-7.02734,4.2164l-2.81093,8.4328c-.70273,3.51367-4.2164,5.62187-7.73007,5.62187s-6.3246-2.1082-7.73007-5.62187l-2.81093-8.4328c-.70273-2.81093-4.2164-4.91913-7.02734-4.2164l-8.4328,2.1082c-3.51367.70273-7.02734-.70203-8.4328-3.51367-1.40547-2.81093-1.40547-7.02734,1.40547-9.13554l6.3246-6.3246c2.1082-2.1082,2.1082-5.62187,0-7.73007l-6.3246-6.3246c-2.1082-2.81093-2.81093-6.3246-1.40547-9.13554,1.40547-2.81093,4.91913-4.2164,8.4328-3.51367l8.4328,2.1082c2.81093.70273,6.3246-.70273,7.02734-4.2164l2.81093-8.4328c.70273-3.51367,4.2164-5.62187,7.73007-5.62187s6.3246,2.81093,7.73007,5.62187Z"/>
  </g>
</svg>